<?xml version="1.0" encoding="UTF-8" standalone="no"?>
<svg
   xmlns:dc="http://purl.org/dc/elements/1.1/"
   xmlns:cc="http://creativecommons.org/ns#"
   xmlns:rdf="http://www.w3.org/1999/02/22-rdf-syntax-ns#"
   xmlns:svg="http://www.w3.org/2000/svg"
   xmlns="http://www.w3.org/2000/svg"
   xmlns:sodipodi="http://sodipodi.sourceforge.net/DTD/sodipodi-0.dtd"
   xmlns:inkscape="http://www.inkscape.org/namespaces/inkscape"
   inkscape:version="1.0 (4035a4fb49, 2020-05-01)"
   sodipodi:docname="logo.svg"
   width="286mm"
   height="60mm"
   viewBox="0 0 286 60"
   version="1.1"
   id="svg907">
  <sodipodi:namedview
     inkscape:current-layer="svg907"
     inkscape:window-maximized="1"
     inkscape:window-y="-8"
     inkscape:window-x="-8"
     inkscape:cy="487.8788"
     inkscape:cx="629.6497"
     inkscape:zoom="0.75327067"
     showgrid="false"
     id="namedview13"
     inkscape:window-height="1017"
     inkscape:window-width="1920"
     inkscape:pageshadow="2"
     inkscape:pageopacity="0"
     guidetolerance="10"
     gridtolerance="10"
     objecttolerance="10"
     borderopacity="1"
     bordercolor="#666666"
     pagecolor="#ffffff" />
  <defs
     id="defs901" />
  <metadata
     id="metadata904">
    <rdf:RDF>
      <cc:Work
         rdf:about="">
        <dc:format>image/svg+xml</dc:format>
        <dc:type
           rdf:resource="http://purl.org/dc/dcmitype/StillImage" />
        <dc:title></dc:title>
      </cc:Work>
    </rdf:RDF>
  </metadata>
  <g
     transform="translate(-9.1323969,-72.356685)"
     id="layer1">
    <path
       style="fill:#3790ff;fill-opacity:1;fill-rule:evenodd;stroke:none;stroke-width:1.34227;stroke-miterlimit:4;stroke-dasharray:none;stroke-dashoffset:0;stroke-opacity:1"
       d="m 181.02077,78.869677 c -1.13007,0.0012 -2.26086,-0.0025 -3.39027,0.0025 -1.23473,0.0779 -2.35045,1.078426 -2.54535,2.302008 -1.6683,11.376626 -3.33335,22.753255 -4.99969,34.129875 -0.22705,1.37532 0.91437,1.92345 2.13534,1.92936 1.00974,-6.3e-4 2.01842,0 3.02817,0 1.41913,0.0401 2.61913,-1.07729 2.80879,-2.45914 0.49702,-3.39087 0.9936,-6.78284 1.49061,-10.17371 0.27465,-1.97437 0.84048,-3.7892 2.39304,-5.162542 1.51396,-1.326284 3.36359,-2.022301 5.38764,-1.777057 2.24512,0.280078 3.14691,1.835852 3.25809,3.959349 0.0609,1.219 -0.13461,2.33462 -0.30273,3.53012 -0.49967,3.45234 -0.99769,6.90405 -1.49733,10.35572 -0.24603,1.18831 1.25069,1.71013 2.19568,1.69181 h 3.146 c 1.1157,-0.0357 2.14494,-0.83127 2.51183,-1.87763 0.10717,-0.28947 0.12843,-0.6003 0.18021,-0.90245 0.61997,-4.0167 1.23886,-8.03333 1.85949,-12.04941 0.55845,-3.75057 -0.15309,-7.275792 -3.27246,-9.647788 -1.73699,-1.318396 -3.78656,-1.790073 -5.93947,-1.764584 -3.23788,0.03131 -5.85633,0.886581 -8.35452,3.020485 0.6468,-4.485637 1.29562,-8.971347 1.94374,-13.457649 0.0803,-0.52187 -0.18663,-0.947744 -0.61694,-1.234848 -0.41788,-0.277267 -0.92272,-0.399766 -1.41971,-0.414804 z m -36.62826,1.171614 c -0.17158,-0.0025 -0.34782,0.0025 -0.52783,0.01972 -2.44719,0.220394 -4.41074,2.338964 -4.55136,4.782207 -0.1176,2.028661 1.27961,3.676439 3.30696,3.851078 2.45698,0.211273 4.80157,-1.508959 5.33784,-3.914287 0.58734,-2.628384 -0.99264,-4.698264 -3.56561,-4.738153 z m -60.273038,0.430114 c -1.015853,-0.05449 -1.779762,1.193973 -2.004082,2.08837 -0.298887,1.17652 -0.599106,2.352694 -0.896662,3.529189 -0.313269,1.328231 0.346514,2.803862 1.516475,3.491818 0.251751,0.15112 0.530819,0.244306 0.798941,0.360173 3.124052,1.287038 6.248151,2.575259 9.372847,3.861629 -0.474784,3.423555 -0.95159,6.846916 -1.428355,10.270456 -0.07198,0.48855 -0.131639,0.97962 -0.157038,1.47336 -0.369487,6.85172 4.817169,11.8541 11.623112,11.64617 3.18817,-0.0976 6.02973,-1.26653 8.5011,-3.28014 2.89257,2.94683 6.85941,3.80253 10.8127,3.02626 5.67978,-1.11373 10.61062,-6.02038 11.75245,-11.68255 0.13017,-0.64153 0.21127,-1.29243 0.30079,-1.9399 0.47153,-3.422273 0.94249,-6.844027 1.41399,-10.265682 0.0537,-0.33244 -0.0424,-0.67908 -0.24999,-0.942665 -0.46957,-0.602928 -1.32274,-0.84159 -2.05586,-0.846842 -1.17452,6.42e-4 -2.34917,-9.78e-4 -3.52439,9.8e-4 -1.27657,0.04019 -2.45514,0.985807 -2.80112,2.210079 -0.0668,0.226311 -0.0883,0.46268 -0.12153,0.695474 -0.43231,3.138472 -0.86423,6.276576 -1.29718,9.414996 -0.35637,2.40988 -1.47602,4.50252 -4.14032,4.95176 -2.62049,0.44932 -4.73653,-1.41772 -4.42587,-4.06373 0.27661,-2.02538 0.55391,-4.05012 0.83057,-6.075453 0.0247,-0.211272 0.0764,-0.420572 0.0537,-0.633225 -0.034,-0.614763 -0.33375,-1.213599 -0.82292,-1.590265 -0.40809,-0.321248 -0.93182,-0.480702 -1.44846,-0.474169 -1.05683,6.17e-4 -2.11503,-7.17e-4 -3.17187,0 -0.20462,0.0012 -0.4107,-0.0099 -0.61406,0.02218 -1.18435,0.15112 -2.23209,1.063142 -2.54534,2.214812 -0.0367,0.179964 -0.0532,0.362838 -0.0813,0.544133 -0.26289,1.855327 -0.52263,3.710187 -0.78552,5.564877 -0.24209,1.93908 -1.3588,3.53529 -3.20826,4.25723 -0.84951,0.3302 -1.8065,0.40179 -2.69,0.16542 -1.87036,-0.50744 -2.869015,-2.35708 -2.57408,-4.2438 0.63564,-4.567406 1.27134,-9.13363 1.90634,-13.700965 0.24455,-1.493725 -0.58657,-3.026673 -2.017465,-3.569423 C 94.816871,84.827821 89.69465,82.700327 84.570063,80.57949 84.415487,80.51368 84.264918,80.47989 84.119808,80.472246 Z m 77.003168,9.914111 c -1.58772,0.0011 -3.17863,0.248769 -4.68834,0.722295 -3.79832,1.174523 -7.0741,4.059542 -7.53449,8.176326 -0.23419,2.092753 0.24358,3.987233 1.9399,5.331143 1.36681,1.09672 3.31054,1.85333 4.95464,2.3595 1.35898,0.42057 4.53915,1.1029 5.17022,2.46775 0.16468,0.3557 0.10752,0.77328 -0.0507,1.11989 -0.64287,1.39233 -2.76732,1.46969 -4.07332,1.4082 -1.61401,-0.0769 -3.20954,-0.49644 -4.65287,-1.22234 -0.77108,-0.37495 -1.56444,-0.8611 -2.32501,-1.2751 -0.64223,-0.32841 -1.49712,-0.14152 -1.94377,0.42325 -0.68078,0.89665 -1.35937,1.79439 -2.0395,2.69098 -0.11982,0.15828 -0.25058,0.31363 -0.32382,0.50007 -0.17256,0.40671 -0.10018,0.90337 0.18293,1.24341 0.51075,0.66188 2.80649,1.90299 3.58665,2.25416 0.91557,0.4125 1.87142,0.72942 2.84521,0.97138 3.26597,0.81484 6.87991,0.8302 10.01183,-0.51637 3.76233,-1.61728 6.26641,-4.76505 6.40311,-8.93025 0.0511,-1.55974 -0.27413,-3.11727 -1.41207,-4.2611 -0.85999,-0.87827 -2.74791,-1.74358 -3.92962,-2.12093 -1.05553,-0.34139 -2.12469,-0.63584 -3.192,-0.93404 -0.84425,-0.24332 -3.51306,-0.847336 -3.73609,-1.930299 -0.0911,-0.448012 0.0385,-0.939264 0.35351,-1.27412 1.49498,-1.613363 5.65314,-0.816148 7.37832,-0.02687 0.69715,0.305593 1.63317,1.040019 2.29627,1.150537 0.72003,0.125727 1.21284,-0.353914 1.62091,-0.876573 0.45124,-0.574183 0.90205,-1.147947 1.35266,-1.721464 0.62783,-0.751435 0.68327,-1.898077 0.18291,-2.729288 -0.26486,-0.415199 -0.45821,-0.582713 -0.86695,-0.857393 -2.22802,-1.461232 -4.86434,-2.143147 -7.51052,-2.141076 z m -19.79659,0.868879 c -0.14027,6.17e-4 -0.27996,0.0049 -0.41961,0.01726 -1.0555,0.120797 -1.99691,0.914709 -2.30298,1.930297 -0.0784,0.250569 -0.0983,0.514499 -0.13903,0.772169 -1.0143,7.217269 -2.02948,14.434849 -3.04445,21.652189 -0.0739,0.53886 0.28358,0.98521 0.73287,1.2396 0.43945,0.24745 0.95229,0.34317 1.45323,0.33155 h 3.07511 c 1.12812,-0.0446 2.16612,-0.87368 2.4879,-1.94949 0.0542,-0.17677 0.0788,-0.35973 0.10455,-0.54224 1.0228,-7.27616 2.04653,-14.55227 3.06935,-21.828428 0.0313,-0.192783 0.0122,-0.393726 -0.0605,-0.574799 -0.24209,-0.602312 -0.92666,-0.906476 -1.527,-1.005875 -0.27471,-0.04511 -0.55426,-0.04019 -0.83156,-0.04019 h -2.17744 c -0.14027,0.0012 -0.2803,-0.0016 -0.42055,-9.79e-4 z"
       id="path32-1-09-2-3" />
    <path
       id="path32-1-1-65-5-4"
       d="m 214.44329,72.775731 c -1.66631,-0.03526 -2.26083,-0.0025 -3.39026,0.0025 -1.2347,0.07791 -2.35045,1.078428 -2.54533,2.302035 -1.66831,11.376625 -4.56099,28.507654 -6.22733,39.884284 -0.22705,1.37532 0.91437,1.92346 2.13534,1.92936 7.16539,0.0707 21.8399,0.17676 22.40141,-0.0401 0.56223,-0.23838 1.06867,-0.52769 1.31946,-1.26829 0.76172,-2.24952 1.65812,-4.84805 -0.10752,-6.1794 -0.81874,-0.57036 -14.52004,-0.0747 -15.40666,-0.59886 -0.36298,-0.21472 -1.40877,-0.73417 -1.21882,-2.47741 0.57428,-5.27075 4.49867,-25.063616 5.07652,-31.906582 0.0803,-0.521869 -0.18661,-0.947744 -0.61692,-1.234823 -0.41788,-0.277267 -0.8766,-0.421065 -1.41972,-0.414804 -5e-5,0 -2e-5,1.47e-4 -2e-5,1.47e-4 z"
       style="fill:#3790ff;fill-opacity:1;fill-rule:evenodd;stroke:none;stroke-width:1.34227;stroke-miterlimit:4;stroke-dasharray:none;stroke-dashoffset:0;stroke-opacity:1" />
    <path
       id="path32-1-9-8-6-5"
       d="m 260.68339,90.679596 c -1.5877,0.0012 -3.17867,0.248768 -4.68833,0.72232 -3.7983,1.174573 -7.0741,4.059566 -7.53447,8.176353 -0.23396,2.092731 0.24332,3.987191 1.93989,5.331141 1.3668,1.09672 3.31053,1.8533 4.95467,2.35952 1.35892,0.42058 4.53908,1.10288 5.17016,2.46773 0.16467,0.35571 0.10752,0.77327 -0.0509,1.11985 -0.64284,1.39231 -2.76732,1.46973 -4.07335,1.40824 -1.61397,-0.0774 -3.20954,-0.49646 -4.65288,-1.2224 -0.77103,-0.37446 -1.56439,-0.86108 -2.325,-1.27505 -0.64221,-0.3284 -1.49708,-0.14151 -1.94371,0.42326 -0.68083,0.89659 -1.35942,1.79434 -2.03953,2.69099 -0.11957,0.15826 -0.25058,0.31363 -0.32392,0.50001 -0.17282,0.4067 -0.10039,0.9034 0.18293,1.24348 0.51075,0.66183 2.80647,1.9029 3.58663,2.25414 0.91557,0.4125 1.87142,0.72937 2.84521,0.97134 3.26593,0.81489 6.87986,0.83024 10.01181,-0.5163 3.76231,-1.61732 6.26641,-4.76508 6.40311,-8.93029 0.0509,-1.55973 -0.27426,-3.11727 -1.41206,-4.26109 -0.85998,-0.87827 -2.74792,-1.74363 -3.92964,-2.12093 -1.0555,-0.34139 -2.12471,-0.63584 -3.19197,-0.93404 -0.84428,-0.24332 -3.51308,-0.84736 -3.73613,-1.930347 -0.0906,-0.447961 0.0401,-0.939263 0.35345,-1.274071 1.495,-1.61339 5.65317,-0.816125 7.37833,-0.02687 0.69719,0.305594 1.63316,1.039994 2.2963,1.150487 0.72007,0.125728 1.21283,-0.353912 1.62089,-0.876522 0.45126,-0.574184 0.90209,-1.14795 1.35266,-1.721493 0.62783,-0.751411 0.68327,-1.898052 0.18292,-2.729263 -0.26486,-0.415199 -0.45824,-0.582713 -0.86696,-0.857392 -2.228,-1.461281 -4.86435,-2.143148 -7.51051,-2.141127 z"
       style="fill:#3790ff;fill-opacity:1;fill-rule:evenodd;stroke:none;stroke-width:1.34227;stroke-miterlimit:4;stroke-dasharray:none;stroke-dashoffset:0;stroke-opacity:1" />
    <path
       id="path32-1-2-3-9-7"
       d="m 242.66476,81.273525 c -0.17133,-0.0025 -0.34765,0.0025 -0.52785,0.01973 -2.44717,0.220394 -4.41073,2.338963 -4.55134,4.782232 -0.11759,2.028636 1.27961,3.676439 3.30692,3.851053 2.45701,0.211273 4.8016,-1.50896 5.33786,-3.914287 0.58736,-2.628385 -0.99259,-4.698241 -3.56559,-4.738154 z m -3.06649,11.213105 c -0.14002,6.41e-4 -0.28006,0.0049 -0.41966,0.01726 -1.05552,0.120797 -1.99692,0.91471 -2.30297,1.930296 -0.0782,0.250569 -0.0983,0.5145 -0.13903,0.772169 -1.01437,7.217315 -2.0295,14.434845 -3.04448,21.652185 -0.0739,0.53887 0.28366,0.98521 0.73288,1.2396 0.43935,0.24744 0.95228,0.3432 1.45322,0.33156 h 3.0751 c 1.12813,-0.0446 2.16614,-0.87368 2.48787,-1.94949 0.054,-0.17677 0.0792,-0.35974 0.10433,-0.54219 1.02283,-7.27621 2.04654,-14.55232 3.06932,-21.828483 0.0313,-0.192784 0.0122,-0.393727 -0.0605,-0.5748 -0.24209,-0.602312 -0.92667,-0.90645 -1.52701,-1.005875 -0.27472,-0.04511 -0.55426,-0.04019 -0.83153,-0.04019 h -2.17748 c -0.14053,0.0012 -0.28009,-0.0016 -0.42058,-9.78e-4 z"
       style="fill:#3790ff;fill-opacity:1;fill-rule:evenodd;stroke:none;stroke-width:1.34227;stroke-miterlimit:4;stroke-dasharray:none;stroke-dashoffset:0;stroke-opacity:1" />
    <path
       id="path32-1-17-6-9-9"
       d="m 9.8751176,96.345007 c -0.08339,-0.52971 -0.15324,-1.062355 -0.185585,-1.598178 -0.465483,-7.435146 5.2015354,-12.909597 12.6959234,-12.741368 3.510628,0.07889 6.6489,1.323966 9.38689,3.489031 3.159108,-3.223547 7.518819,-4.186033 11.877615,-3.376738 6.2624,1.161038 11.732737,6.446034 13.03833,12.583245 0.148909,0.695376 0.24357,1.401327 0.347777,2.103408 0.548453,3.711253 2.278793,14.252323 2.827234,17.962853 0.06189,0.36019 -0.04073,0.73759 -0.267155,1.02546 -0.511772,0.65854 -1.448961,0.92486 -2.255991,0.93674 -1.293022,0.0104 -2.58618,0.0222 -3.879963,0.0269 -1.405693,-0.0313 -2.711321,-1.04946 -3.102679,-2.37556 -0.07543,-0.2453 -0.101076,-0.50157 -0.139781,-0.75398 -0.502814,-3.40349 -2.187769,-13.636899 -2.691298,-17.040337 -0.413004,-2.613198 -1.66358,-4.875442 -4.600544,-5.340661 -2.888717,-0.465589 -5.202189,1.57917 -4.837525,4.449052 0.321889,2.196372 1.151374,8.307056 1.473285,10.503476 0.02859,0.22903 0.08777,0.456 0.06459,0.68697 -0.03231,0.66764 -0.356949,1.32025 -0.892301,1.73334 -0.446509,0.35212 -1.021705,0.52974 -1.590514,0.52701 -1.163479,0.0104 -2.328437,0.0173 -3.491891,0.0269 -0.225324,3.2e-4 -0.452029,0.0122 -0.676195,-0.0173 -1.305133,-0.15384 -2.466392,-1.13534 -2.821118,-2.3829 -0.04216,-0.195 -0.06188,-0.39373 -0.09443,-0.59001 -0.305346,-2.01198 -1.114001,-7.938354 -1.419321,-9.949586 -0.282989,-2.103012 -1.526193,-3.826426 -3.568438,-4.594551 -0.938056,-0.351225 -1.992176,-0.421018 -2.962823,-0.157037 -2.054719,0.566737 -3.138281,2.583122 -2.797385,4.628917 0.552423,6.378537 2.11658,16.411867 2.256188,18.595157 0.05398,0.84293 0.0099,1.05295 -0.431495,1.53669 -0.543687,0.70067 -1.38688,0.55369 -2.178383,0.60112 -0.871124,0.0522 -2.175004,-0.0313 -2.845035,-0.0269 -0.960427,0.0104 -1.16279,-0.13336 -1.57455,-0.22235 -0.864774,-0.43445 -1.551002,-1.35269 -1.761398,-1.91205 -0.867413,-2.03187 -2.575973,-13.96168 -2.9018604,-18.337929 z"
       style="fill:#3790ff;fill-opacity:1;fill-rule:evenodd;stroke:none;stroke-width:1.34227;stroke-miterlimit:4;stroke-dasharray:none;stroke-dashoffset:0;stroke-opacity:1" />
    <path
       d="m 283.41561,81.205781 c -0.14003,6.41e-4 -0.2792,0.0049 -0.41833,0.01726 -1.05255,0.121044 -1.97532,0.914981 -2.25661,1.930592 -0.0725,0.250471 -0.086,0.514574 -0.12029,0.772242 -0.15358,1.319901 -0.40537,3.150232 -0.64975,4.938678 -1.40458,-0.0049 -2.86719,-0.01726 -4.53169,-0.05325 -0.26085,-0.0024 -0.52397,-0.02218 -0.78383,0.01232 -1.05165,0.138301 -1.98788,0.938451 -2.27743,1.96062 -0.0357,0.135589 -0.0621,0.273373 -0.0856,0.411625 -0.0222,0.138301 -0.0446,0.275616 -0.067,0.413867 l -0.35166,2.150297 c -0.0446,0.273816 -0.0927,0.549383 -0.0927,0.827735 0.001,0.608475 0.19155,1.333433 0.74683,1.669325 0.1669,0.101563 0.36197,0.1526 0.55723,0.1526 1.7097,0.03575 3.79727,0.03131 5.81724,0.03575 -0.9536,6.583108 -1.9779,13.533948 -2.46242,17.701458 0.23888,1.28857 1.08818,2.63653 2.33294,3.41498 l 2.58724,1.41036 c 1.12704,-0.0448 2.14372,-0.87332 2.43925,-1.94909 0.0501,-0.17675 0.0714,-0.36107 0.0925,-0.54334 0.4934,-4.24638 1.66393,-12.41021 2.73752,-20.011243 1.65273,1.23e-4 3.2361,-0.0049 4.93635,0.0049 1.11361,-0.143971 2.25477,-0.87963 2.47857,-1.986087 l 1.2231,-3.188417 c 0.0922,-0.492509 0.0807,-1.015464 -0.0925,-1.489015 -0.17848,-0.484375 -0.56143,-0.908646 -1.10519,-0.922526 -2.41629,-0.05374 -4.4396,-0.05671 -6.38141,-0.05103 0.31141,-2.29163 0.60988,-4.514775 0.78381,-6.011459 0.0269,-0.193029 0.002,-0.392246 -0.0739,-0.573393 -0.25682,-0.602313 -0.94862,-0.906353 -1.55142,-1.005777 -0.27562,-0.04511 -0.55508,-0.04388 -0.83235,-0.04388 h -2.17798 c -0.14051,0.0011 -0.28054,-6.54e-4 -0.42057,0 z"
       style="fill:#3790ff;fill-opacity:1;fill-rule:evenodd;stroke:none;stroke-width:1.34227;stroke-miterlimit:4;stroke-dasharray:none;stroke-dashoffset:0;stroke-opacity:1"
       id="path32-1-2-8-71-4-4" />
    <path
       d="m 65.614139,95.163951 c -0.150388,0 -0.298251,0.0025 -0.448536,0.0024 H 61.96464 c -0.29709,0 -0.598174,-0.0025 -0.892475,0.04019 -0.643263,0.09934 -1.37544,0.403563 -1.634666,1.005752 -0.0784,0.181197 -0.09831,0.382534 -0.06485,0.575737 4.229764,6.66764 8.518009,13.07686 13.155896,19.77308 -2.349902,5.87561 -4.597805,11.59634 -5.551365,14.45299 -0.07908,0.53889 0.302437,0.98485 0.783774,1.23928 0.47087,0.2474 1.021656,0.34229 1.558367,0.33063 h 3.294771 c 1.208692,-0.0446 2.321083,-0.8733 2.665833,-1.94908 0.05814,-0.17677 0.08385,-0.3611 0.110931,-0.54335 1.502823,-4.45499 10.068071,-25.7732 13.024107,-33.157903 0.0336,-0.192783 0.01483,-0.392395 -0.06482,-0.57337 -0.259223,-0.602312 -0.991404,-0.906378 -1.63463,-1.005801 -0.294336,-0.04511 -0.595385,-0.04487 -0.892487,-0.04487 h -2.332914 c -0.150378,0.0012 -0.300561,-6.52e-4 -0.450869,0 -0.150388,6.53e-4 -0.29891,0.0049 -0.448524,0.01726 -1.130938,0.120799 -2.139111,0.915005 -2.467035,1.930618 -0.08408,0.250545 -0.10672,0.514574 -0.150387,0.772242 -0.724965,1.872709 -1.902173,6.905514 -3.756141,11.488874 -3.46689,-5.39065 -6.456413,-10.292977 -7.701614,-12.02063 -0.991597,-1.489878 -0.700481,-1.769735 -2.450833,-2.319069 -0.149648,-0.01232 -0.298296,-0.01726 -0.448559,-0.01726 z"
       style="fill:#3790ff;fill-opacity:1;fill-rule:evenodd;stroke:none;stroke-width:1.34227;stroke-miterlimit:4;stroke-dasharray:none;stroke-dashoffset:0;stroke-opacity:1"
       id="path32-1-2-9-4-5-3" />
  </g>
</svg>
